<svg width="64" height="64" viewBox="0 0 64 64" fill="none" xmlns="http://www.w3.org/2000/svg">
<g clip-path="url(#clip0_5482_26165)">
<path d="M62.9839 19.8412C62.9839 9.44387 54.5559 1.01587 44.1586 1.01587C33.7613 1.01587 25.3333 9.44387 25.3333 19.8412C25.3333 22.2772 25.8146 24.5945 26.6613 26.7292C24.5053 25.8692 22.1586 25.3825 19.6959 25.3825C9.29861 25.3825 0.870605 33.8105 0.870605 44.2079C0.870605 54.3279 8.82127 62.6012 18.8346 63.0332H36.4986C38.2386 63.0332 39.1626 60.9785 38.0079 59.6772L34.5359 55.7612C37.0239 52.5705 38.5199 48.5679 38.5199 44.2079C38.5199 42.2785 38.2266 40.4185 37.6879 38.6665H45.0173L44.9746 38.6252C54.9906 38.1932 62.9839 29.9612 62.9839 19.8412Z" fill="white"/>
<path d="M11.6867 45.8411C12.6072 45.8411 13.3534 45.095 13.3534 44.1745C13.3534 43.254 12.6072 42.5078 11.6867 42.5078C10.7662 42.5078 10.02 43.254 10.02 44.1745C10.02 45.095 10.7662 45.8411 11.6867 45.8411Z" fill="black"/>
<path d="M19.8254 45.8411C20.7458 45.8411 21.492 45.095 21.492 44.1745C21.492 43.254 20.7458 42.5078 19.8254 42.5078C18.9049 42.5078 18.1587 43.254 18.1587 44.1745C18.1587 45.095 18.9049 45.8411 19.8254 45.8411Z" fill="black"/>
<path d="M27.964 45.8411C28.8845 45.8411 29.6307 45.095 29.6307 44.1745C29.6307 43.254 28.8845 42.5078 27.964 42.5078C27.0436 42.5078 26.2974 43.254 26.2974 44.1745C26.2974 45.095 27.0436 45.8411 27.964 45.8411Z" fill="black"/>
<path d="M44.1587 0.0158691C33.2267 0.0158691 24.3333 8.9092 24.3333 19.8412C24.3333 21.6332 24.584 23.3825 25.0453 25.0692C23.3813 24.6065 21.6333 24.3505 19.824 24.3505C8.89333 24.3505 0 33.2439 0 44.1745C0 54.8345 8.31067 63.5425 18.964 63.9999H36.6293C37.8333 63.9999 38.888 63.3172 39.3813 62.2185C39.8747 61.1212 39.6853 59.8799 38.8867 58.9812L35.956 55.6745C38.3747 52.2959 39.6507 48.3372 39.6507 44.1745C39.6507 42.6199 39.444 41.1172 39.0987 39.6665H45.02C45.1333 39.6665 45.2427 39.6452 45.3427 39.6079C55.8227 38.9892 63.984 30.3679 63.984 19.8412C63.984 8.9092 55.0907 0.0158691 44.1587 0.0158691ZM33.8773 55.1132C33.5813 55.4932 33.5987 56.0305 33.9173 56.3905L37.3893 60.3079C37.7947 60.7639 37.6187 61.2585 37.556 61.3985C37.492 61.5385 37.2387 61.9985 36.628 61.9985L19.0053 61.9999C9.47067 61.5892 2 53.7599 2 44.1745C2 34.3465 9.996 26.3505 19.824 26.3505C21.9427 26.3505 23.964 26.7465 25.848 27.4305C26.42 28.7985 27.1453 30.1079 28.028 31.3399L25.096 34.6465C24.2973 35.5479 24.1093 36.7879 24.6027 37.8865C25.0973 38.9839 26.152 39.6665 27.3547 39.6665H37.0333C37.4173 41.1092 37.6493 42.6119 37.6493 44.1745C37.6493 48.1652 36.3453 51.9479 33.8773 55.1132ZM44.9333 37.6265C44.852 37.6292 44.7747 37.6439 44.7 37.6665H27.3547C26.744 37.6665 26.4907 37.2065 26.4267 37.0665C26.3627 36.9265 26.188 36.4292 26.5933 35.9745L30.0653 32.0585C30.384 31.6972 30.4013 31.1599 30.1053 30.7799C27.636 27.6132 26.332 23.8319 26.332 19.8412C26.332 10.0119 34.328 2.01587 44.1573 2.01587C53.9867 2.01587 61.9827 10.0119 61.9827 19.8412C61.984 29.4025 54.4947 37.2145 44.9333 37.6265Z" fill="black"/>
<path d="M42.924 10.252C40.9 10.252 40.1627 12.2893 39.14 15.1133C38.9934 15.5146 38.86 15.852 38.7347 16.1413C38.704 16.1426 38.6707 16.1426 38.6387 16.1426C37.9414 16.1426 37.164 15.8333 36.616 15.3266C36.2387 14.9773 35.788 14.3666 35.788 13.4426C35.788 12.2346 36.8507 11.1733 38.0614 11.1733C38.612 11.1733 38.8787 11.3066 39.1974 11.4906C39.2267 11.5106 39.2667 11.512 39.2974 11.5053L39.9974 11.3253C40.0294 11.3173 40.0587 11.2973 40.0774 11.2693L40.144 11.168C40.1814 11.1093 40.1694 11.0306 40.1134 10.9893C39.6374 10.6253 39.0214 10.2533 38.0587 10.2533C38.056 10.2533 38.0534 10.2533 38.0507 10.2533C37.2054 10.2533 36.4094 10.584 35.8054 11.184C35.1987 11.7893 34.8654 12.5933 34.8654 13.4453C34.8654 15.3026 36.3587 16.8426 38.304 17.032C38.232 17.1613 38.16 17.2853 38.0854 17.4066L37.488 17.2293C36.7187 17 36.512 16.9386 36.2254 16.9386C35.488 16.9386 34.8654 17.56 34.8654 18.2946C34.8654 19.0306 35.488 19.6506 36.2254 19.6506C37.0774 19.6506 37.8094 19.264 38.4627 18.4666L42.5214 19.5946C42.6707 19.6386 42.7747 19.6466 42.9174 19.6466C43.6547 19.6466 44.2774 19.0266 44.2774 18.292C44.2827 17.7546 43.956 17.264 43.4467 17.0426C43.3974 17.02 43.3374 17.032 43.3 17.0706L42.856 17.5146C42.8294 17.54 42.8174 17.5733 42.8174 17.608V17.7253C42.8174 17.7946 42.8694 17.852 42.9374 17.8586C43.1827 17.884 43.3534 18.06 43.3534 18.2893C43.3534 18.3693 43.332 18.4426 43.2907 18.512C43.2134 18.6426 43.0667 18.7253 42.9187 18.7253C42.8614 18.7253 42.824 18.7173 42.764 18.7053L39.012 17.6626C39.1334 17.4546 39.2467 17.2386 39.352 17.02C40.4827 16.9346 41.668 16.416 42.5427 15.6213C43.6574 14.608 44.2947 13.1493 44.2947 11.6173C44.292 10.948 43.7814 10.252 42.924 10.252ZM36.2307 18.728C35.9894 18.724 35.7934 18.5293 35.7934 18.292C35.7934 18.052 35.988 17.8573 36.2254 17.8573C36.3814 17.8573 37.0067 18.0373 37.476 18.184C37.0934 18.548 36.6867 18.7266 36.2307 18.728ZM39.788 16.0106C39.8654 15.816 39.9374 15.6186 40.0094 15.4226C41.0214 12.6266 41.6094 11.1693 42.928 11.1693C43.1747 11.1693 43.3747 11.3706 43.3747 11.6173C43.3747 13.964 41.5547 15.676 39.788 16.0106Z" fill="black"/>
<path d="M54.0854 13.4453C54.0854 12.592 53.752 11.7893 53.1454 11.184C52.5427 10.584 51.7454 10.2533 50.9 10.2533C50.8974 10.2533 50.8947 10.2533 50.892 10.2533C49.9467 10.2533 49.3467 10.6066 48.8374 10.988C48.7814 11.0306 48.768 11.1093 48.8067 11.168L48.8734 11.2693C48.892 11.2973 48.92 11.3173 48.9534 11.3253L49.6534 11.5053C49.684 11.512 49.7214 11.5106 49.7534 11.4906C50.0707 11.3053 50.3374 11.1733 50.8894 11.1733C52.1 11.1733 53.1627 12.2346 53.1627 13.4426C53.1627 14.3706 52.7094 14.984 52.3294 15.3333C51.7547 15.8626 50.9227 16.18 50.216 16.1413C50.0934 15.8613 49.9667 15.54 49.8107 15.1133C48.792 12.292 48.0574 10.252 46.0267 10.252C45.1694 10.252 44.66 10.9466 44.66 11.6186C44.66 13.1493 45.2987 14.6093 46.4107 15.6226C47.2894 16.4173 48.4774 16.936 49.6027 17.0213C49.7107 17.2453 49.824 17.4613 49.9427 17.664L46.1987 18.7053C46.132 18.7186 46.0947 18.7266 46.0347 18.7266C45.884 18.7266 45.74 18.644 45.6614 18.512C45.6214 18.4466 45.5987 18.3706 45.5987 18.2906C45.5987 18.0613 45.7707 17.884 46.016 17.86C46.0854 17.8533 46.136 17.796 46.136 17.7266V17.6093C46.136 17.5746 46.1227 17.54 46.0974 17.516L45.6534 17.072C45.616 17.032 45.5547 17.02 45.5067 17.044C45.0014 17.2626 44.676 17.752 44.676 18.292C44.676 19.028 45.2987 19.648 46.036 19.648C46.1774 19.648 46.2827 19.64 46.4294 19.5973L50.4907 18.468C51.1427 19.2653 51.876 19.652 52.728 19.652C53.4654 19.652 54.088 19.032 54.088 18.296C54.088 17.548 53.4787 16.94 52.728 16.94C52.4294 16.94 52.232 16.9986 51.3974 17.248L50.868 17.4066C50.7934 17.2853 50.7214 17.16 50.6494 17.032C52.592 16.8413 54.0854 15.3026 54.0854 13.4453ZM45.5787 11.616C45.5787 11.3693 45.78 11.168 46.0267 11.168C47.3467 11.172 47.936 12.6293 48.9454 15.4213C49.016 15.6173 49.088 15.8146 49.1654 16.0093C47.4 15.676 45.5787 13.964 45.5787 11.616ZM52.7267 17.8573C52.9654 17.8573 53.1587 18.052 53.1587 18.292C53.1587 18.5293 52.9627 18.724 52.7227 18.728C52.2707 18.728 51.8614 18.548 51.4774 18.1826C51.9454 18.036 52.5707 17.8573 52.7267 17.8573Z" fill="black"/>
<path d="M51.464 22.4519C52.2333 22.6812 52.44 22.7425 52.7267 22.7425C53.464 22.7425 54.0867 22.1212 54.0867 21.3865C54.0867 20.6505 53.464 20.0305 52.7267 20.0305C51.8747 20.0305 51.1427 20.4172 50.4893 21.2145L46.4307 20.0865C46.2814 20.0425 46.1773 20.0345 46.0347 20.0345C45.2973 20.0345 44.6747 20.6545 44.6747 21.3905C44.6747 21.9292 45 22.4185 45.5054 22.6385C45.5547 22.6639 45.616 22.6492 45.652 22.6105L46.096 22.1665C46.1227 22.1412 46.1347 22.1079 46.1347 22.0732V21.9572C46.1347 21.8879 46.0827 21.8305 46.0147 21.8239C45.768 21.7985 45.5974 21.6225 45.5974 21.3919C45.5974 21.3145 45.6187 21.2412 45.6613 21.1692C45.74 21.0385 45.8827 20.9572 46.0334 20.9572C46.0907 20.9572 46.128 20.9652 46.188 20.9772L49.9387 22.0199C49.8213 22.2225 49.708 22.4372 49.6 22.6625C48.472 22.7452 47.2853 23.2652 46.408 24.0612C45.2947 25.0732 44.6573 26.5332 44.6573 28.0652C44.6573 28.7372 45.168 29.4305 46.024 29.4305C48.0494 29.4305 48.7853 27.3932 49.808 24.5705C49.964 24.1452 50.0907 23.8225 50.2133 23.5425C50.9227 23.5172 51.7573 23.8252 52.332 24.3559C52.7093 24.7052 53.16 25.3145 53.16 26.2399C53.16 27.4479 52.0974 28.5092 50.8867 28.5092C50.3373 28.5092 50.0693 28.3772 49.7493 28.1919C49.7213 28.1732 49.6827 28.1692 49.6507 28.1785L48.9507 28.3572C48.9187 28.3652 48.8893 28.3852 48.8707 28.4132L48.804 28.5145C48.7667 28.5732 48.7787 28.6519 48.8347 28.6932C49.3347 29.0759 49.9293 29.4292 50.8893 29.4292C50.892 29.4292 50.8947 29.4292 50.8973 29.4292C51.7427 29.4292 52.54 29.0985 53.1427 28.4985C53.7493 27.8932 54.0827 27.0892 54.0827 26.2372C54.0827 24.3785 52.5894 22.8399 50.644 22.6519C50.7134 22.5252 50.7853 22.4012 50.864 22.2759L51.464 22.4519ZM52.7253 20.9519C52.9667 20.9559 53.1627 21.1505 53.1627 21.3865C53.1627 21.6279 52.968 21.8225 52.7307 21.8225C52.5747 21.8225 51.9493 21.6425 51.48 21.4959C51.86 21.1319 52.2693 20.9532 52.7253 20.9519ZM48.9467 24.2559C47.9347 27.0519 47.3467 28.5092 46.028 28.5092C45.7813 28.5092 45.58 28.3092 45.58 28.0625C45.58 25.7132 47.4 24.0012 49.1667 23.6679C49.0787 23.8852 49.0093 24.0759 48.9467 24.2559Z" fill="black"/>
<path d="M39.3492 22.6613C39.2439 22.4413 39.1306 22.2253 39.0092 22.0186L42.7532 20.9773C42.8199 20.964 42.8572 20.956 42.9172 20.956C43.0679 20.956 43.2119 21.0386 43.2906 21.168C43.3306 21.236 43.3519 21.3093 43.3519 21.3906C43.3519 21.6213 43.1799 21.7986 42.9359 21.8226C42.8666 21.8293 42.8159 21.8866 42.8159 21.956V22.072C42.8159 22.1066 42.8292 22.1413 42.8546 22.1653L43.2986 22.6093C43.3346 22.6466 43.3946 22.66 43.4439 22.6373C43.9506 22.42 44.2759 21.9306 44.2759 21.3893C44.2759 20.6533 43.6532 20.0333 42.9159 20.0333C42.7746 20.0333 42.6692 20.0413 42.5226 20.084L38.4612 21.2133C37.8092 20.416 37.0759 20.0293 36.2239 20.0293C35.4866 20.0293 34.8639 20.6493 34.8639 21.3853C34.8639 22.1333 35.4732 22.7413 36.2239 22.7413C36.5226 22.7413 36.7199 22.6826 37.5546 22.4333L38.0839 22.2746C38.1612 22.4013 38.2332 22.5253 38.3026 22.6506C36.3572 22.84 34.8639 24.3786 34.8639 26.236C34.8639 27.0893 35.1972 27.892 35.8039 28.4973C36.4052 29.0973 37.2039 29.428 38.0492 29.428C38.0519 29.428 38.0546 29.428 38.0572 29.428C39.0026 29.428 39.6026 29.0746 40.1106 28.6933C40.1679 28.6506 40.1812 28.572 40.1426 28.5133L40.0759 28.412C40.0572 28.384 40.0292 28.364 39.9959 28.356L39.2959 28.1773C39.2639 28.1693 39.2252 28.1733 39.1972 28.1906C38.8772 28.3773 38.6079 28.508 38.0599 28.508C36.8492 28.508 35.7866 27.4466 35.7866 26.2386C35.7866 25.3106 36.2399 24.6986 36.6199 24.348C37.1652 23.8453 37.9359 23.5386 38.6292 23.5386C38.6639 23.5386 38.6999 23.54 38.7332 23.5413C38.8586 23.8306 38.9906 24.168 39.1386 24.5693C40.1559 27.3906 40.8906 29.4293 42.9226 29.4293C43.7799 29.4293 44.2892 28.7346 44.2892 28.064C44.2892 26.532 43.6506 25.072 42.5372 24.06C41.6599 23.264 40.4719 22.7453 39.3492 22.6613ZM36.2292 21.8226C35.9906 21.8226 35.7972 21.628 35.7972 21.3866C35.7972 21.1493 35.9932 20.956 36.2319 20.952C36.6866 20.952 37.0946 21.1306 37.4786 21.4973C37.0106 21.6426 36.3852 21.8226 36.2292 21.8226ZM42.9279 28.5106C41.6092 28.5106 41.0199 27.052 40.0092 24.2573C39.9372 24.0613 39.8652 23.864 39.7879 23.6706C41.5546 24.004 43.3746 25.716 43.3746 28.0653C43.3746 28.3093 43.1746 28.5106 42.9279 28.5106Z" fill="black"/>
</g>
<defs>
<clipPath id="clip0_5482_26165">
<rect width="64" height="64" fill="white"/>
</clipPath>
</defs>
</svg>
