<?xml version="1.0" encoding="utf-8"?>
<!-- Generator: Adobe Illustrator 24.1.2, SVG Export Plug-In . SVG Version: 6.00 Build 0)  -->
<svg version="1.1" id="Capa_1" xmlns="http://www.w3.org/2000/svg" xmlns:xlink="http://www.w3.org/1999/xlink" x="0px" y="0px"
	 viewBox="0 0 32 32" style="enable-background:new 0 0 32 32;" xml:space="preserve">
<g id="Information">
</g>
<path d="M1,0l0,17.9c-0.6,0.5-1,1.3-1,2.1c0,0.9,0.4,1.7,1,2.4V32h31V0H1z M30,22h-8.7c0.4-0.6,0.7-1.3,0.7-2c0-1.6-1.6-3-3.5-3
	h-1.3c-2.1,0-3.9,0.7-5.2,1.9V2h18V22z M2,20c0-0.5,0.7-1,1.5-1h1.3c2.4,0,4.5,1.3,5.1,3H5v0H4.8C3.3,22,2,21.1,2,20z M12.2,22
	c0.6-1.7,2.6-3,5.1-3h1.3c0.8,0,1.5,0.5,1.5,1c0,1.1-1.3,2-2.8,2H12.2z M10,2v16.9C8.7,17.7,6.8,17,4.7,17H3.5c-0.2,0-0.3,0-0.5,0
	L3,2H10z M3,23.7C3.5,23.9,4.1,24,4.8,24h2.9c-1,1.1-1.6,2.5-1.6,4h2c0-1.3,0.8-2.6,2-3.4V30H3V23.7z M12,30v-5.4c1.3,0.8,2,2,2,3.4
	h2c0-1.5-0.6-2.9-1.6-4h2.9H30v6H12z"/>
<g id="Information_1_">
</g>
</svg>
