<svg xmlns="http://www.w3.org/2000/svg" viewBox="488 19.7 266 90.716" height="188.034" width="828" xmlns:v="https://vecta.io/nano"><path d="M476.27 96.857c-6.457 3.55-19.53 5.327-25.18 5.327h-9.685V30.192c.16-1.13.646-2.26 1.453-3.228l3.713-4.68a2.24 2.24 0 0 0 0-1.453h-25.02a2.24 2.24 0 0 0 0 1.453l3.713 4.68c.807.807 1.29 1.937 1.453 3.228v70.7c0 1.13-1.29 2.906-1.937 3.55l-3.4 3.067c-.16.646-.16 1.13 0 1.776H475.3l3.067-12.43a4.61 4.61 0 0 0-2.098 0z" fill="#1a1919"/><path d="M566.825 63.12c-.646-23.244-18.563-43.42-43.098-43.42-6.618 0-13.236 1.453-19.2 4.358C488.86 31.806 477.4 49.078 477.4 66.5c0 24.535 20.177 43.905 43.098 43.905 5.972 0 11.783-.807 17.1-3.067 16.787-7.102 28.894-22.598 29.216-44.228zM507.1 30.03c27.602-5.488 45.358 14.205 45.358 37.772 0 12.6-5.488 25.665-16.303 33.736-25.988 3.713-43.744-14.043-43.744-38.9 0-12.752 4.197-24.858 14.7-32.606zM629.454 98.3c-5.327 2.583-20.823 3.874-26.472 3.874h-8.394V70.708h15.335l4.842 2.906c.646.16 1.13.16 1.776 0v-14.85c-.646-.16-1.13-.16-1.776 0l-5.004 2.098h-15.01v-32.93h21.8l11.622 2.583a3.97 3.97 0 0 0 1.937 0L628 20.83h-53.106a2.24 2.24 0 0 0 0 1.453l3.713 4.68c.807.807 1.3 1.937 1.453 3.228v70.7c0 1.13-1.3 2.906-2.098 3.55l-3.4 3.067c-.16.646-.16 1.13 0 1.776h53.913l3.067-10.976a4.61 4.61 0 0 0-2.098 0zm188.858 0c-5.327 2.583-20.823 3.874-26.472 3.874h-8.394V70.708h15.335l4.842 2.906c.646.16 1.13.16 1.776 0v-14.85c-.646-.16-1.13-.16-1.776 0l-5.004 2.098h-15.012v-32.93h21.8l11.622 2.583c.646.16 1.3.16 2.098 0l-2.098-9.685h-53.106a2.24 2.24 0 0 0 0 1.453l3.713 4.68c.807.807 1.3 1.937 1.453 3.228v70.7c0 1.13-1.3 2.906-1.937 3.55l-3.4 3.067c-.16.646-.16 1.13 0 1.776h53.913l3.067-10.976c-1.13-.16-1.776-.16-2.42 0zM757.62 20.83h-20.984a2.24 2.24 0 0 0 0 1.453l3.874 3.713c.807.807 1.776 1.937 1.453 3.067h0L723.4 86.688 704.836 21c-3.228-.323-6.457-.323-9.524 0l-22.275 65.535-15.335-56.82c-.323-.807-.16-1.776.323-2.583l4.358-4.68a2.24 2.24 0 0 0 0-1.453h-25.827a2.24 2.24 0 0 0 0 1.453l4.358 4.68c.646.807 1.13 1.614 1.453 2.583h0l22.114 79.578c1.13.323 7.748.323 9.2 0l22.275-66.342 19.37 66.342c3.067.323 6.134.323 9.04 0L750.194 31c.323-1.13.968-2.26 1.937-3.228l5.488-5.327c.16-.646.16-1.13 0-1.614z"/></svg>